inDegrees=no
num_controls=7
num_derivatives=13
num_iterations=162
num_multipliers=7
num_parameters=0
num_slacks=7
num_states=26
objective=0.545118
objective_accelerations=0.042725
objective_balance=0.004005
objective_effort=0.041578
objective_height=0.447363
objective_ligament=0.009447
solver_duration=2099.131999
status=Solve_Succeeded
success=true
DataType=double
version=3
OpenSimVersion=4.5
endheader
time	/jointset/ground_pelvis/pelvis_tilt/value	/jointset/ground_pelvis/pelvis_tx/value	/jointset/ground_pelvis/pelvis_ty/value	/jointset/hip_r/hip_flexion_r/value	/jointset/hip_r/hip_adduction_r/value	/jointset/hip_r/hip_rotation_r/value	/jointset/back/lumbar_extension/value	/jointset/patellofemoral_r/patellar_flexion_r/value	/jointset/knee_r/knee_flexion_r/value	/jointset/knee_r/knee_adduction_r/value	/jointset/knee_r/knee_rotation_r/value	/jointset/ankle_r/ankle_angle_r/value	/jointset/subtalar_r/subtalar_angle_r/value	/jointset/ground_pelvis/pelvis_tilt/speed	/jointset/ground_pelvis/pelvis_tx/speed	/jointset/ground_pelvis/pelvis_ty/speed	/jointset/hip_r/hip_flexion_r/speed	/jointset/hip_r/hip_adduction_r/speed	/jointset/hip_r/hip_rotation_r/speed	/jointset/back/lumbar_extension/speed	/jointset/patellofemoral_r/patellar_flexion_r/speed	/jointset/knee_r/knee_flexion_r/speed	/jointset/knee_r/knee_adduction_r/speed	/jointset/knee_r/knee_rotation_r/speed	/jointset/ankle_r/ankle_angle_r/speed	/jointset/subtalar_r/subtalar_angle_r/speed	/forceset/tau_hip_flexion_r	/forceset/tau_hip_adduction_r	/forceset/tau_hip_rotation_r	/forceset/tau_knee_flexion_r	/forceset/tau_ankle_angle_r	/forceset/tau_subtalar_angle_r	/forceset/tau_lumbar_extension	lambda_cid13_p0	lambda_cid14_p0	lambda_cid14_p1	lambda_cid14_p2	lambda_cid14_p3	lambda_cid14_p4	lambda_cid14_p5	/jointset/ground_pelvis/pelvis_tilt/accel	/jointset/ground_pelvis/pelvis_tx/accel	/jointset/ground_pelvis/pelvis_ty/accel	/jointset/hip_r/hip_flexion_r/accel	/jointset/hip_r/hip_adduction_r/accel	/jointset/hip_r/hip_rotation_r/accel	/jointset/back/lumbar_extension/accel	/jointset/patellofemoral_r/patellar_flexion_r/accel	/jointset/knee_r/knee_flexion_r/accel	/jointset/knee_r/knee_adduction_r/accel	/jointset/knee_r/knee_rotation_r/accel	/jointset/ankle_r/ankle_angle_r/accel	/jointset/subtalar_r/subtalar_angle_r/accel	gamma_cid13_p0	gamma_cid14_p0	gamma_cid14_p1	gamma_cid14_p2	gamma_cid14_p3	gamma_cid14_p4	gamma_cid14_p5
0	-0.006514953380542655	0.0962600948084299	0.9427241122833728	0.1762555222360518	-0.2321523723709513	-0.2616389787586746	-0.038598046466844	0.07317863873452304	0.07317863873451017	0.1745319648830727	0.1745312016331388	0.03247278518263602	-0.003451657995466091	0	0	0	0	0	0	0	0	0	0	0	0	0	0.2505527653986238	-0.1733721323603717	-0.04782065026762761	-0.4287550391383923	0.4112538105893629	-0.1429723129678329	-0.1435132412850244	-39.07576420682673	81.63844529807778	-37.94713547892184	-4.742934125105822	-25.31930428882204	-683.6429478234726	63.64811655146545	-3.244801324689868	-1.579266010385092	-0.7031760249731767	10.53803018365033	0.2838241089718355	2.256973842798607	-5.485441276336902	8.643161326093329	8.643161326093237	-2.914088175931771	0.1417661116867519	2.140424270994043	0.7746591252880757	8.943281824540229e-08	4.533520762693296e-08	-5.788551267127237e-07	1.949086335695786e-07	3.964474630687267e-08	-2.138372144096325e-08	-2.998141063436824e-07
0.01	-0.006668738352469106	0.09618137854433188	0.9426901931983805	0.1767669447598394	-0.2321373137223918	-0.2615188323201718	-0.038874875135683	0.07359852217092237	0.07359852217090969	0.1743869598633458	0.1745275555404802	0.0325757274052541	-0.003413045391166262	-0.03054225312787901	-0.01575311066400643	-0.006767573983651185	0.1018455585385731	0.002936066882205941	0.02390391728888327	-0.05499152822726073	0.08363935031361326	0.08363935031360835	-0.02874243925144141	-0.0006990977255745935	0.02039731480152972	0.007598980899657829	0.2398156834855348	-0.179326934898102	-0.04489776657790393	-0.4118751126797892	0.3845877006241004	-0.1282679524704233	-0.1353876894290744	-39.08963096572102	73.63808019988053	-33.0164435938186	-5.466649197848684	-20.09475556336825	-683.4098057547782	72.10225774221982	-2.926719288762221	-1.574804343071783	-0.6611159095535833	9.941982665524295	0.2870925525078248	2.438341490589657	-5.449877764265037	8.173703452772942	8.173703452772465	-2.815607118332001	-0.1711744630306529	1.960730235180201	0.7339179228627067	1.170582015682252e-07	5.28917007062531e-08	-7.467604640297293e-07	1.712189870220058e-07	5.842412264797252e-08	-1.637444372510617e-07	-3.171785167509076e-07
0.02	-0.007121502252072628	0.0959448370238602	0.942589084808653	0.1782836556643146	-0.2320951754900773	-0.2611633985450475	-0.03969039292046554	0.07484467542420732	0.0748446754242077	0.1739622733873895	0.1745178331209218	0.03287691180597641	-0.003302162907758258	-0.05979578553272338	-0.03156505127472999	-0.01343786094699684	0.2010576761396816	0.005415916750924981	0.04705746732402176	-0.1077378231882517	0.1652539633783321	0.1652539633783316	-0.05593629124614989	-0.001215265385190302	0.0396484356209662	0.01445397582163744	0.2290786015724464	-0.1852817374358314	-0.04197488288812817	-0.3949951862211911	0.3579215906588423	-0.1135635919730124	-0.127262137573126	-39.13075257998795	65.71453532594285	-28.09083507636813	-6.168381501471404	-14.97357383188635	-681.9528619078455	80.33233088633288	-2.987057180082602	-1.591031999728858	-0.6837186209120619	10.0113419961575	0.1925807062744666	2.10690039204955	-5.03639462308277	8.238213876314514	8.238213876316278	-2.60437072458522	0.1783521248786294	1.91118547457502	0.6258619297523582	1.44683584891048e-07	6.044819378557324e-08	-9.146658013467349e-07	1.475293404744329e-07	7.720349898907235e-08	-3.061051530611602e-07	-3.345429271581329e-07
0.03	-0.007861496006614765	0.09555022328852127	0.9424214980053237	0.180780153428359	-0.2320303414950423	-0.2605822891583792	-0.04102193203197782	0.076897116516338	0.0768971165163342	0.1732733215545277	0.174505675645781	0.03336520374242855	-0.00312614224194995	-0.08805262975201678	-0.0473312674740687	-0.02008079027353321	0.2978091882484473	0.007506776911787296	0.06903484955835006	-0.1582242561677311	0.2448467459876598	0.2448467459876683	-0.08162989081497891	-0.001225530888799828	0.05784087271035161	0.02066656084668105	0.22048766906961	-0.1835914450771599	-0.03974303205603626	-0.3836778170739185	0.3414173557004135	-0.1081007380684121	-0.1206536421813319	-39.19821536375808	60.69179721600856	-26.64699686077508	-6.342332394496541	-11.87120502964176	-680.9185353586593	81.83750014046969	-2.722431099157248	-1.565436666523824	-0.6548354679238356	9.442162921673745	0.2106095113518038	2.223769499368859	-5.002906192863464	7.761655046111096	7.761655046111334	-2.518358388345129	-0.09204973229467826	1.747940881917055	0.6062890991399701	1.625509436399841e-07	6.457911373175614e-08	-1.018536003469599e-06	1.490494012057075e-07	9.09038657162682e-08	-4.049976567678639e-07	-3.606416855398309e-07
0.04	-0.008879544814623181	0.09499874334389062	0.9421874308328492	0.1842311877341691	-0.2319459447303259	-0.2597852834773164	-0.04284796318478315	0.07973385435313249	0.07973385435313317	0.1723341329629128	0.174493148746735	0.03403035366093359	-0.002890529263839348	-0.1154067962234462	-0.06293829313307543	-0.02673393477603367	0.3919649844947163	0.009328470687037441	0.09023672620245199	-0.2066362314464859	0.3221133123117561	0.3221133123117649	-0.1059836429963431	-0.001289150164965359	0.07502003203160344	0.02637243828210785	0.2118967365667755	-0.1819011527184914	-0.0375111812239192	-0.3723604479266506	0.3249131207419848	-0.1026378841638153	-0.1140451467895344	-39.29063168229481	55.73836787445897	-25.20545058626833	-6.49943658549416	-8.860931162886141	-678.7822599673303	83.14138001855446	-2.80652163050949	-1.559193891662789	-0.6857616561048721	9.492198823658274	0.1387474291520492	1.951799274004193	-4.621503082937687	7.772970619268269	7.772970619268317	-2.336401247092287	0.1676813703675106	1.708529920947954	0.5245204118289311	1.802171060059534e-07	6.863940330405994e-08	-1.121085893526605e-06	1.510892497159273e-07	1.044995105957547e-07	-5.029939086786213e-07	-3.869205335704871e-07
0.05	-0.01016731573765021	0.09429258305284167	0.9418865533239966	0.1886113309205634	-0.2318447609774951	-0.2587815003918028	-0.04514698481924507	0.08333275385924988	0.08333275385924518	0.1711582785558234	0.174481211198481	0.03486330832949988	-0.00260020375028962	-0.1420061359812457	-0.0782044889139583	-0.0334558963556694	0.4835767446151888	0.01086025666908336	0.1103880749493405	-0.2528063567302006	0.3973000724263502	0.3973000724263604	-0.1289463874863178	-0.001111300608019448	0.09148660442777257	0.03162516523207311	0.2047515672158478	-0.1738722475810714	-0.03590235147669813	-0.3659810413908672	0.318061344111969	-0.1050534606533785	-0.1083179999431821	-39.4064244829014	53.59610503766671	-26.68027800631372	-6.206457497802037	-8.14377685356158	-676.93722802176	78.77401725879655	-2.565428843761817	-1.496919987990648	-0.667664203715707	8.922641902132893	0.15304951448479	2.02708279180646	-4.560506443207488	7.336515048797785	7.336515048797929	-2.24024775047152	-0.05903442728740502	1.603114513424231	0.5153634252413019	1.772598823598534e-07	6.264684855759796e-08	-1.089866161853101e-06	1.450510252829561e-07	1.086510484783022e-07	-5.691615899008392e-07	-3.772078280542227e-07
0.06	-0.01171683779733677	0.09343644329064517	0.941518006040383	0.1938929871673314	-0.2317297282984923	-0.2575801477954641	-0.04789685554496985	0.08767251823475709	0.08767251823475811	0.1697599893637335	0.1744706779106689	0.03585840744492191	-0.002259408049508117	-0.1677570235528671	-0.09293418736258621	-0.0402678897282074	0.5722675965713043	0.01209825592128579	0.1297506283672391	-0.2968060496986391	0.4702862861906564	0.4702862861906671	-0.150470599997151	-0.001008298076894905	0.1074489214028518	0.0364664757284766	0.1976063978649233	-0.1658433424436516	-0.03429352172943753	-0.3596016348550869	0.3112095674819555	-0.1074690371429421	-0.1025908530968284	-39.54373417332962	51.51558746062109	-28.16025686324154	-5.894422479351354	-7.505934521286372	-674.1019805226086	74.21441419627239	-2.636831193273568	-1.451894425212107	-0.7037680146853164	8.908017190786952	0.07999008318337157	1.794040208206166	-4.187416619882245	7.332861349210731	7.332861349210606	-2.048694851264024	0.1527119652032886	1.607678836729643	0.4422371211165136	1.734343056185083e-07	5.623101615560902e-08	-1.053014025054102e-06	1.386726714629031e-07	1.124049397504522e-07	-6.339891207782764e-07	-3.659796887044039e-07
0.07000000000000001	-0.01352035081965264	0.0924356645087394	0.9410806808106293	0.2000481494457141	-0.2316037753569423	-0.2561907355081844	-0.05107543784329498	0.09273206374785493	0.09273206374785069	0.1681536483169908	0.1744624976809799	0.03701081203223484	-0.0018721727207399	-0.1928149920919628	-0.1071310894528704	-0.04722207859878488	0.65828964962926	0.01305879416121537	0.1480031047403933	-0.3385661847445687	0.5412486787238044	0.5412486787238222	-0.170576373708665	-0.0006590084002875314	0.1229463255833621	0.04092850021422714	0.1903077692575061	-0.1618661878275381	-0.03258573672893198	-0.3540479779560841	0.3043735529536661	-0.1058211249614502	-0.09676933309543864	-39.70060355807554	49.57147980571912	-27.87810654729739	-5.833018523968176	-7.052776484706529	-671.6598812712298	73.16423946026738	-2.420665558319937	-1.389993640420208	-0.6951102632740939	8.378031511773782	0.09892691428032563	1.821591763379774	-4.118678163177566	6.921772909271253	6.921772909272356	-1.958486125285866	-0.02858756819710028	1.507956847054618	0.4402215846421995	1.562522306585639e-07	4.713818904946248e-08	-9.172739599108999e-07	1.438694105255367e-07	1.066373605305661e-07	-6.586597113547108e-07	-3.401425493427997e-07
0.08	-0.01557052070218981	0.09129563559803332	0.9405730405041639	0.2070492786843633	-0.2314692487890154	-0.2546226503748706	-0.05466129473532681	0.09849000212706388	0.09849000212706373	0.1663528560342949	0.1744568853406361	0.03831562778902096	-0.001441909852646683	-0.2170883955947125	-0.1207842131226509	-0.05433090507055533	0.7414609886261699	0.01381298119644762	0.1654851975739371	-0.37826096843963	0.6099648594131295	0.6099648594131545	-0.1893608471878103	-0.0004947202071429325	0.1379311552975851	0.04507198359349182	0.1830091406501037	-0.1578890332114261	-0.03087795172841165	-0.3484943210570754	0.2975375384253804	-0.1041732127799592	-0.09094781309403853	-39.87481051122399	47.68231346926774	-27.59813749037182	-5.75778622772677	-6.671228167316575	-668.3435173572782	71.94430496184278	-2.479918186004108	-1.343138741111653	-0.7346955349239045	8.337874378577908	0.03871984224392488	1.639963500284063	-3.774346349708436	6.883618980446163	6.883618980446125	-1.784434804790325	0.1157116685107633	1.505163943471866	0.3785288998192817	1.382084461361293e-07	3.787265260756385e-08	-7.751540284229112e-07	1.498129297741501e-07	1.002554928918389e-07	-6.80739531589145e-07	-3.13362893851403e-07
0.09	-0.01786012774609753	0.09002175810777165	0.9399933644091375	0.214869031121806	-0.2313282652277965	-0.2528853267592635	-0.05863327494987324	0.1049249208342587	0.1049249208342571	0.1643708677051303	0.1744539004999283	0.03976796532158457	-0.0009717804991179627	-0.2407036530672523	-0.1339006682153405	-0.0616367390177982	0.8220203826778631	0.01435702997361913	0.1818498121729372	-0.4158013065768152	0.6766462349142642	0.6766462349142827	-0.2068255266415653	-0.0001381516683432512	0.1524506306014915	0.04890919735029183	0.1753167422210074	-0.1550536564248576	-0.02908267828471986	-0.3432211038967184	0.2905334443851564	-0.1009405721528337	-0.08484501974107603	-40.06404593074838	45.77346713095221	-26.6445424465423	-5.777183525488374	-6.297821045792936	-665.4578371805045	72.00694259365306	-2.28290038473523	-1.282286439025904	-0.733527591818799	7.844616786318395	0.05816312528976182	1.615297131457337	-3.693812361326055	6.504472418198958	6.50447241819801	-1.695894105614919	-0.009702577749412467	1.412507851779436	0.379511199949866	1.112243251584954e-07	2.862905147580275e-08	-5.59765466707224e-07	1.665013750854715e-07	8.551615972194809e-08	-6.714003740335302e-07	-2.751882180124343e-07
